<?xml version="1.0" encoding="UTF-8"?>
<svg width="1226.7" height="2043.1" version="1.1" viewBox="0 0 1226.7 2043.1" xml:space="preserve" xmlns="http://www.w3.org/2000/svg" xmlns:cc="http://creativecommons.org/ns#" xmlns:dc="http://purl.org/dc/elements/1.1/" xmlns:rdf="http://www.w3.org/1999/02/22-rdf-syntax-ns#"><metadata><rdf:RDF><cc:Work rdf:about=""><dc:format>image/svg+xml</dc:format><dc:type rdf:resource="http://purl.org/dc/dcmitype/StillImage"/><dc:title/></cc:Work></rdf:RDF></metadata><g transform="matrix(1.3333 0 0 -1.3333 -106.67 2301.6)"><g transform="matrix(1,0,0,-1,0,1920)"><g transform="matrix(1.4902 0 0 1.4902 -316.81 11.667)"><g transform="matrix(.7743 0 0 .7743 219.82 122.24)"><path d="m302.34 46.5h9.6585c4.4183 0 8 3.5817 8 8v164c0 4.4183-3.5817 8-8 8h-41.737" fill="none" stroke="#d4d4d4"/></g><g transform="matrix(.7743 0 0 .7743 219.82 122.24)"><path d="m302.34 46.5h29.659c4.4183 0 8 3.5817 8 8v164c0 4.4183 3.5817 8 8 8h36" fill="none" stroke="#d4d4d4"/></g><g transform="matrix(.7743 0 0 .7743 219.82 122.24)"><path d="m577.32 226.5h34.681c4.4183 0 8-3.5817 8-8v-156c0-4.4183 3.5817-8 8-8h36" fill="none" stroke="#d4d4d4"/></g><g transform="matrix(.7743 0 0 .7743 219.82 122.24)"><path d="m577.32 226.5h86.681" fill="none" stroke="#d4d4d4"/></g><g transform="matrix(.7743 0 0 .7743 219.82 122.24)"><path d="m577.32 226.5h34.681c4.4183 0 8 3.5817 8 8v148c0 4.4183 3.5817 8 8 8h36" fill="none" stroke="#d4d4d4"/></g><g transform="matrix(.7743 0 0 .7743 219.82 122.24)"><path d="m577.32 226.5h34.681c4.4183 0 8 3.5817 8 8v312c0 4.4183 3.5817 8 8 8h36" fill="none" stroke="#d4d4d4"/></g><g transform="matrix(.7743 0 0 .7743 219.82 122.24)"><path d="m577.32 226.5h34.681c4.4183 0 8 3.5817 8 8v480c0 4.4183 3.5817 8 8 8h36" fill="none" stroke="#d4d4d4"/></g><g transform="matrix(.7743 0 0 .7743 219.82 122.24)"><path d="m577.32 226.5h34.681c4.4183 0 8 3.5817 8 8v648c0 4.4183 3.5817 8 8 8h36" fill="none" stroke="#d4d4d4"/></g><g transform="matrix(.7743 0 0 .7743 219.82 122.24)"><path d="m577.32 226.5h34.681c4.4183 0 8 3.5817 8 8v816c0 4.4183 3.5817 8 8 8h36" fill="none" stroke="#d4d4d4"/></g><g transform="matrix(.7743 0 0 .7743 219.82 122.24)"><path d="m577.32 226.5h34.681c4.4183 0 8 3.5817 8 8v984c0 4.4183 3.5817 8 8 8h36" fill="none" stroke="#d4d4d4"/></g><g transform="matrix(.7743 0 0 .7743 266.28 122.24)"><path d="m0 0h242.34v32h-242.34v-32z" fill="#306996"/></g><text transform="translate(276.34 138.15)" fill="#ffffff" font-family="Helvetica" font-size="10.066px" font-weight="bold"><tspan x="0 6.1502562 12.300512 15.098828 21.249084 26.845716 30.761347" y="0">uniparc</tspan></text><g transform="matrix(.7743 0 0 .7743 266.28 147.02)"><path d="m0 0h242.34v29h-242.34v-29z" fill="#f5f5f5"/></g><text transform="translate(276.34 161.5)" fill="#000000" font-family="Helvetica" font-size="9.2916px"><tspan x="0 5.1661224 10.332245 12.394977 17.5611 22.727221 25.82132 30.467113 35.633236 37.695969" y="0">uniparc_id</tspan></text><text transform="translate(411.05 161.5)" fill="#999999" font-family="Helvetica" font-size="9.2916px"><tspan x="0 4.6457934 9.8119154 12.906014 17.551807 22.71793 27.884052" y="0">varchar</tspan></text><g transform="matrix(.7743 0 0 .7743 266.28 169.47)"><path d="m0 0h242.34v29h-242.34v-29z" fill="#f5f5f5"/></g><text transform="translate(276.34 183.95)" fill="#6f6f6f" font-family="Helvetica" font-size="9.2916px"><tspan x="0 4.6457934 9.8119154 14.978038 20.144159 25.310282 30.476404 35.1222" y="0">sequence</tspan></text><text transform="translate(413.65 183.95)" fill="#999999" font-family="Helvetica" font-size="9.2916px"><tspan x="0 4.6457934 9.8119154 12.906014 17.551807 22.71793 27.884052" y="0">varchar</tspan></text><g transform="matrix(.7743 0 0 .7743 266.28 191.93)"><path d="m0 0h242.34v29h-242.34v-29z" fill="#f5f5f5"/></g><text transform="translate(276.34 206.41)" fill="#6f6f6f" font-family="Helvetica" font-size="9.2916px"><tspan x="0 4.6457934 9.8119154 14.978038 20.144159 25.310282 30.476404 35.1222 40.288319 45.454441 47.517174 52.683296 57.849419 63.015541 65.598602" y="0">sequence_length</tspan></text><text transform="translate(416.22 206.41)" fill="#999999" font-family="Helvetica" font-size="9.2916px"><tspan x="0 2.0627322 7.2288547 9.8119154 14.978038 20.144159 25.310282" y="0">integer</tspan></text><g transform="matrix(.7743 0 0 .7743 266.28 214.38)"><path d="m0 0h242.34v29h-242.34v-29z" fill="#f5f5f5"/></g><text transform="translate(276.34 228.86)" fill="#6f6f6f" font-family="Helvetica" font-size="9.2916px"><tspan x="0 4.6457934 9.8119154 14.978038 20.144159 25.310282 30.476404 35.1222 40.288319 45.454441 50.100235 55.266357 60.43248 65.078278 69.724068 74.369858 79.53598" y="0">sequence_checksum</tspan></text><text transform="translate(413.65 228.86)" fill="#999999" font-family="Helvetica" font-size="9.2916px"><tspan x="0 4.6457934 9.8119154 12.906014 17.551807 22.71793 27.884052" y="0">varchar</tspan></text><g transform="matrix(.7743 0 0 .7743 517.15 261.62)"><path d="m0 0h193.32v32h-193.32v-32z" fill="#306996"/></g><text transform="translate(527.22 277.53)" fill="#ffffff" font-family="Helvetica" font-size="10.066px" font-weight="bold"><tspan x="0 5.5966325 9.5122623 15.108894" y="0">xref</tspan></text><g transform="matrix(.7743 0 0 .7743 517.15 286.39)"><path d="m0 0h193.32v29h-193.32v-29z" fill="#f5f5f5"/></g><text transform="translate(527.22 300.87)" fill="#000000" font-family="Helvetica" font-size="9.2916px"><tspan x="0 5.1661224 10.332245 12.394977 17.5611 22.727221 25.82132 30.467113 35.633236 37.695969" y="0">uniparc_id</tspan></text><text transform="translate(623.97 300.87)" fill="#999999" font-family="Helvetica" font-size="9.2916px"><tspan x="0 4.6457934 9.8119154 12.906014 17.551807 22.71793 27.884052" y="0">varchar</tspan></text><g transform="matrix(.7743 0 0 .7743 517.15 308.85)"><path d="m0 0h193.32v29h-193.32v-29z" fill="#f5f5f5"/></g><text transform="translate(527.22 323.33)" fill="#000000" font-family="Helvetica" font-size="9.2916px"><tspan x="0 4.6457934 7.739892 12.906014 15.489076 20.655197 22.71793" y="0">xref_id</tspan></text><text transform="translate(632.26 323.33)" fill="#999999" font-family="Helvetica" font-size="9.2916px"><tspan x="0 5.1661224 7.2288547 12.394977 14.457709 19.623831" y="0">bigint</tspan></text><g transform="matrix(.7743 0 0 .7743 517.15 331.3)"><path d="m0 0h193.32v29h-193.32v-29z" fill="#f5f5f5"/></g><text transform="translate(527.22 345.78)" fill="#6f6f6f" font-family="Helvetica" font-size="9.2916px"><tspan x="0 5.1661224 10.332245 15.498366 18.081429 22.727221 27.893343" y="0">db_type</tspan></text><text transform="translate(626.56 345.78)" fill="#999999" font-family="Helvetica" font-size="9.2916px"><tspan x="0 4.6457934 9.8119154 12.906014 17.551807 22.71793 27.884052" y="0">varchar</tspan></text><g transform="matrix(.7743 0 0 .7743 517.15 353.76)"><path d="m0 0h193.32v29h-193.32v-29z" fill="#f5f5f5"/></g><text transform="translate(527.22 368.24)" fill="#6f6f6f" font-family="Helvetica" font-size="9.2916px"><tspan x="0 5.1661224 10.332245 15.498366 17.5611" y="0">db_id</tspan></text><text transform="translate(626.56 368.24)" fill="#999999" font-family="Helvetica" font-size="9.2916px"><tspan x="0 4.6457934 9.8119154 12.906014 17.551807 22.71793 27.884052" y="0">varchar</tspan></text><g transform="matrix(.7743 0 0 .7743 517.15 376.21)"><path d="m0 0h193.32v29h-193.32v-29z" fill="#f5f5f5"/></g><text transform="translate(527.22 390.69)" fill="#6f6f6f" font-family="Helvetica" font-size="9.2916px"><tspan x="0 4.6457934 9.8119154 12.906014 17.551807 19.61454 24.780663 29.946785 35.112907" y="0">version_i</tspan></text><text transform="translate(626.56 390.69)" fill="#999999" font-family="Helvetica" font-size="9.2916px"><tspan x="0 4.6457934 9.8119154 12.906014 17.551807 22.71793 27.884052" y="0">varchar</tspan></text><g transform="matrix(.7743 0 0 .7743 517.15 398.67)"><path d="m0 0h193.32v29h-193.32v-29z" fill="#f5f5f5"/></g><text transform="translate(527.22 413.15)" fill="#6f6f6f" font-family="Helvetica" font-size="9.2916px"><tspan x="0 5.1661224 9.8119154 12.394977 14.457709 19.103502" y="0">active</tspan></text><text transform="translate(626.56 413.15)" fill="#999999" font-family="Helvetica" font-size="9.2916px"><tspan x="0 4.6457934 9.8119154 12.906014 17.551807 22.71793 27.884052" y="0">varchar</tspan></text><g transform="matrix(.7743 0 0 .7743 517.15 421.12)"><path d="m0 0h193.32v29h-193.32v-29z" fill="#f5f5f5"/></g><text transform="translate(527.22 435.6)" fill="#6f6f6f" font-family="Helvetica" font-size="9.2916px"><tspan x="0 4.6457934 9.8119154 12.906014 17.551807 19.61454 24.780663" y="0">version</tspan></text><text transform="translate(626.56 435.6)" fill="#999999" font-family="Helvetica" font-size="9.2916px"><tspan x="0 4.6457934 9.8119154 12.906014 17.551807 22.71793 27.884052" y="0">varchar</tspan></text><g transform="matrix(.7743 0 0 .7743 517.15 443.58)"><path d="m0 0h193.32v29h-193.32v-29z" fill="#f5f5f5"/></g><text transform="translate(527.22 458.05)" fill="#6f6f6f" font-family="Helvetica" font-size="9.2916px"><tspan x="0 4.6457934 7.739892 12.906014 18.072136 20.655197 25.82132" y="0">created</tspan></text><text transform="translate(626.56 458.05)" fill="#999999" font-family="Helvetica" font-size="9.2916px"><tspan x="0 4.6457934 9.8119154 12.906014 17.551807 22.71793 27.884052" y="0">varchar</tspan></text><g transform="matrix(.7743 0 0 .7743 517.15 466.03)"><path d="m0 0h193.32v29h-193.32v-29z" fill="#f5f5f5"/></g><text transform="translate(527.22 480.51)" fill="#6f6f6f" font-family="Helvetica" font-size="9.2916px"><tspan x="0 2.0627322 7.2288547 11.874648" y="0">last</tspan></text><text transform="translate(626.56 480.51)" fill="#999999" font-family="Helvetica" font-size="9.2916px"><tspan x="0 4.6457934 9.8119154 12.906014 17.551807 22.71793 27.884052" y="0">varchar</tspan></text><g transform="matrix(.7743 0 0 .7743 733.95 645.67)"><path d="m0 0h193.32v32h-193.32v-32z" fill="#306996"/></g><text transform="translate(744.02 661.58)" fill="#ffffff" font-family="Helvetica" font-size="10.066px" font-weight="bold"><tspan x="0 6.1502562 12.300512 18.450769 24.047401 29.644033 35.794289 41.390923 44.18924" y="0">pdb_chain</tspan></text><g transform="matrix(.7743 0 0 .7743 733.95 670.44)"><path d="m0 0h193.32v29h-193.32v-29z" fill="#f5f5f5"/></g><text transform="translate(744.02 684.92)" fill="#000000" font-family="Helvetica" font-size="9.2916px"><tspan x="0 5.1661224 10.332245 12.394977 17.5611 22.727221 25.82132 30.467113 35.633236 37.695969" y="0">uniparc_id</tspan></text><text transform="translate(840.77 684.92)" fill="#999999" font-family="Helvetica" font-size="9.2916px"><tspan x="0 4.6457934 9.8119154 12.906014 17.551807 22.71793 27.884052" y="0">varchar</tspan></text><g transform="matrix(.7743 0 0 .7743 733.95 692.9)"><path d="m0 0h193.32v29h-193.32v-29z" fill="#f5f5f5"/></g><text transform="translate(744.02 707.38)" fill="#000000" font-family="Helvetica" font-size="9.2916px"><tspan x="0 4.6457934 7.739892 12.906014 15.489076 20.655197 22.71793" y="0">xref_id</tspan></text><text transform="translate(849.07 707.38)" fill="#999999" font-family="Helvetica" font-size="9.2916px"><tspan x="0 5.1661224 7.2288547 12.394977 14.457709 19.623831" y="0">bigint</tspan></text><g transform="matrix(.7743 0 0 .7743 733.95 715.35)"><path d="m0 0h193.32v29h-193.32v-29z" fill="#f5f5f5"/></g><text transform="translate(744.02 729.83)" fill="#6f6f6f" font-family="Helvetica" font-size="9.2916px"><tspan x="0 5.1661224 8.2602205 13.426343 18.592464 23.758587 26.852686 29.435747" y="0">property</tspan></text><text transform="translate(843.37 729.83)" fill="#999999" font-family="Helvetica" font-size="9.2916px"><tspan x="0 4.6457934 9.8119154 12.906014 17.551807 22.71793 27.884052" y="0">varchar</tspan></text><g transform="matrix(.7743 0 0 .7743 733.95 737.81)"><path d="m0 0h193.32v29h-193.32v-29z" fill="#f5f5f5"/></g><text transform="translate(744.02 752.29)" fill="#6f6f6f" font-family="Helvetica" font-size="9.2916px"><tspan x="0 4.6457934 9.8119154 11.874648 17.04077" y="0">value</tspan></text><text transform="translate(843.37 752.29)" fill="#999999" font-family="Helvetica" font-size="9.2916px"><tspan x="0 4.6457934 9.8119154 12.906014 17.551807 22.71793 27.884052" y="0">varchar</tspan></text><g transform="matrix(.7743 0 0 .7743 733.95 775.75)"><path d="m0 0h193.32v32h-193.32v-32z" fill="#306996"/></g><text transform="translate(744.02 791.66)" fill="#ffffff" font-family="Helvetica" font-size="10.066px" font-weight="bold"><tspan x="0 6.1502562 10.065886 16.216143 19.568081 25.164715 27.96303 34.113285 39.709919 45.860176 51.456806 60.40538" y="0">protein_name</tspan></text><g transform="matrix(.7743 0 0 .7743 733.95 800.53)"><path d="m0 0h193.32v29h-193.32v-29z" fill="#f5f5f5"/></g><text transform="translate(744.02 815.01)" fill="#000000" font-family="Helvetica" font-size="9.2916px"><tspan x="0 5.1661224 10.332245 12.394977 17.5611 22.727221 25.82132 30.467113 35.633236 37.695969" y="0">uniparc_id</tspan></text><text transform="translate(840.77 815.01)" fill="#999999" font-family="Helvetica" font-size="9.2916px"><tspan x="0 4.6457934 9.8119154 12.906014 17.551807 22.71793 27.884052" y="0">varchar</tspan></text><g transform="matrix(.7743 0 0 .7743 733.95 822.98)"><path d="m0 0h193.32v29h-193.32v-29z" fill="#f5f5f5"/></g><text transform="translate(744.02 837.46)" fill="#000000" font-family="Helvetica" font-size="9.2916px"><tspan x="0 4.6457934 7.739892 12.906014 15.489076 20.655197 22.71793" y="0">xref_id</tspan></text><text transform="translate(849.07 837.46)" fill="#999999" font-family="Helvetica" font-size="9.2916px"><tspan x="0 5.1661224 7.2288547 12.394977 14.457709 19.623831" y="0">bigint</tspan></text><g transform="matrix(.7743 0 0 .7743 733.95 845.44)"><path d="m0 0h193.32v29h-193.32v-29z" fill="#f5f5f5"/></g><text transform="translate(744.02 859.92)" fill="#6f6f6f" font-family="Helvetica" font-size="9.2916px"><tspan x="0 5.1661224 8.2602205 13.426343 18.592464 23.758587 26.852686 29.435747" y="0">property</tspan></text><text transform="translate(843.37 859.92)" fill="#999999" font-family="Helvetica" font-size="9.2916px"><tspan x="0 4.6457934 9.8119154 12.906014 17.551807 22.71793 27.884052" y="0">varchar</tspan></text><g transform="matrix(.7743 0 0 .7743 733.95 867.89)"><path d="m0 0h193.32v29h-193.32v-29z" fill="#f5f5f5"/></g><text transform="translate(744.02 882.37)" fill="#6f6f6f" font-family="Helvetica" font-size="9.2916px"><tspan x="0 4.6457934 9.8119154 11.874648 17.04077" y="0">value</tspan></text><text transform="translate(843.37 882.37)" fill="#999999" font-family="Helvetica" font-size="9.2916px"><tspan x="0 4.6457934 9.8119154 12.906014 17.551807 22.71793 27.884052" y="0">varchar</tspan></text><g transform="matrix(.7743 0 0 .7743 733.95 905.83)"><path d="m0 0h193.32v32h-193.32v-32z" fill="#306996"/></g><text transform="translate(744.02 921.74)" fill="#ffffff" font-family="Helvetica" font-size="10.066px" font-weight="bold"><tspan x="0 6.1502562 10.065886 16.216143 19.568081 25.164715 31.31497 40.263542 45.860176 51.456806 54.255123" y="0">proteome_id</tspan></text><g transform="matrix(.7743 0 0 .7743 733.95 930.61)"><path d="m0 0h193.32v29h-193.32v-29z" fill="#f5f5f5"/></g><text transform="translate(744.02 945.09)" fill="#000000" font-family="Helvetica" font-size="9.2916px"><tspan x="0 5.1661224 10.332245 12.394977 17.5611 22.727221 25.82132 30.467113 35.633236 37.695969" y="0">uniparc_id</tspan></text><text transform="translate(840.77 945.09)" fill="#999999" font-family="Helvetica" font-size="9.2916px"><tspan x="0 4.6457934 9.8119154 12.906014 17.551807 22.71793 27.884052" y="0">varchar</tspan></text><g transform="matrix(.7743 0 0 .7743 733.95 953.06)"><path d="m0 0h193.32v29h-193.32v-29z" fill="#f5f5f5"/></g><text transform="translate(744.02 967.54)" fill="#000000" font-family="Helvetica" font-size="9.2916px"><tspan x="0 4.6457934 7.739892 12.906014 15.489076 20.655197 22.71793" y="0">xref_id</tspan></text><text transform="translate(849.07 967.54)" fill="#999999" font-family="Helvetica" font-size="9.2916px"><tspan x="0 5.1661224 7.2288547 12.394977 14.457709 19.623831" y="0">bigint</tspan></text><g transform="matrix(.7743 0 0 .7743 733.95 975.52)"><path d="m0 0h193.32v29h-193.32v-29z" fill="#f5f5f5"/></g><text transform="translate(744.02 990)" fill="#6f6f6f" font-family="Helvetica" font-size="9.2916px"><tspan x="0 5.1661224 8.2602205 13.426343 18.592464 23.758587 26.852686 29.435747" y="0">property</tspan></text><text transform="translate(843.37 990)" fill="#999999" font-family="Helvetica" font-size="9.2916px"><tspan x="0 4.6457934 9.8119154 12.906014 17.551807 22.71793 27.884052" y="0">varchar</tspan></text><g transform="matrix(.7743 0 0 .7743 733.95 997.97)"><path d="m0 0h193.32v29h-193.32v-29z" fill="#f5f5f5"/></g><text transform="translate(744.02 1012.5)" fill="#6f6f6f" font-family="Helvetica" font-size="9.2916px"><tspan x="0 4.6457934 9.8119154 11.874648 17.04077" y="0">value</tspan></text><text transform="translate(843.37 1012.5)" fill="#999999" font-family="Helvetica" font-size="9.2916px"><tspan x="0 4.6457934 9.8119154 12.906014 17.551807 22.71793 27.884052" y="0">varchar</tspan></text><g transform="matrix(.7743 0 0 .7743 733.95 1035.9)"><path d="m0 0h193.32v32h-193.32v-32z" fill="#306996"/></g><text transform="translate(744.02 1051.8)" fill="#ffffff" font-family="Helvetica" font-size="10.066px" font-weight="bold"><tspan x="0 6.1502562 12.300512 15.098828 21.249084 25.164715 31.31497 34.666912 40.263542 45.860176 52.010433 57.607063 63.203697 68.800331 74.396965 79.993591 85.590225 91.186859 93.985176 100.13543" y="0">uniprot_kb_accession</tspan></text><g transform="matrix(.7743 0 0 .7743 733.95 1060.7)"><path d="m0 0h193.32v29h-193.32v-29z" fill="#f5f5f5"/></g><text transform="translate(744.02 1075.2)" fill="#000000" font-family="Helvetica" font-size="9.2916px"><tspan x="0 5.1661224 10.332245 12.394977 17.5611 22.727221 25.82132 30.467113 35.633236 37.695969" y="0">uniparc_id</tspan></text><text transform="translate(840.77 1075.2)" fill="#999999" font-family="Helvetica" font-size="9.2916px"><tspan x="0 4.6457934 9.8119154 12.906014 17.551807 22.71793 27.884052" y="0">varchar</tspan></text><g transform="matrix(.7743 0 0 .7743 733.95 1083.1)"><path d="m0 0h193.32v29h-193.32v-29z" fill="#f5f5f5"/></g><text transform="translate(744.02 1097.6)" fill="#000000" font-family="Helvetica" font-size="9.2916px"><tspan x="0 4.6457934 7.739892 12.906014 15.489076 20.655197 22.71793" y="0">xref_id</tspan></text><text transform="translate(849.07 1097.6)" fill="#999999" font-family="Helvetica" font-size="9.2916px"><tspan x="0 5.1661224 7.2288547 12.394977 14.457709 19.623831" y="0">bigint</tspan></text><g transform="matrix(.7743 0 0 .7743 733.95 1105.6)"><path d="m0 0h193.32v29h-193.32v-29z" fill="#f5f5f5"/></g><text transform="translate(744.02 1120.1)" fill="#6f6f6f" font-family="Helvetica" font-size="9.2916px"><tspan x="0 5.1661224 8.2602205 13.426343 18.592464 23.758587 26.852686 29.435747" y="0">property</tspan></text><text transform="translate(843.37 1120.1)" fill="#999999" font-family="Helvetica" font-size="9.2916px"><tspan x="0 4.6457934 9.8119154 12.906014 17.551807 22.71793 27.884052" y="0">varchar</tspan></text><g transform="matrix(.7743 0 0 .7743 733.95 1128.1)"><path d="m0 0h193.32v29h-193.32v-29z" fill="#f5f5f5"/></g><text transform="translate(744.02 1142.5)" fill="#6f6f6f" font-family="Helvetica" font-size="9.2916px"><tspan x="0 4.6457934 9.8119154 11.874648 17.04077" y="0">value</tspan></text><text transform="translate(843.37 1142.5)" fill="#999999" font-family="Helvetica" font-size="9.2916px"><tspan x="0 4.6457934 9.8119154 12.906014 17.551807 22.71793 27.884052" y="0">varchar</tspan></text><g transform="matrix(.7743 0 0 .7743 733.95 128.44)"><path d="m0 0h193.32v32h-193.32v-32z" fill="#306996"/></g><text transform="translate(744.02 144.35)" fill="#ffffff" font-family="Helvetica" font-size="10.066px" font-weight="bold"><tspan x="0 5.5966325 11.746889 20.695461 26.845716 32.995972 39.146229 44.742863 50.89312" y="0">component</tspan></text><g transform="matrix(.7743 0 0 .7743 733.95 153.21)"><path d="m0 0h193.32v29h-193.32v-29z" fill="#f5f5f5"/></g><text transform="translate(744.02 167.69)" fill="#000000" font-family="Helvetica" font-size="9.2916px"><tspan x="0 5.1661224 10.332245 12.394977 17.5611 22.727221 25.82132 30.467113 35.633236 37.695969" y="0">uniparc_id</tspan></text><text transform="translate(840.77 167.69)" fill="#999999" font-family="Helvetica" font-size="9.2916px"><tspan x="0 4.6457934 9.8119154 12.906014 17.551807 22.71793 27.884052" y="0">varchar</tspan></text><g transform="matrix(.7743 0 0 .7743 733.95 175.67)"><path d="m0 0h193.32v29h-193.32v-29z" fill="#f5f5f5"/></g><text transform="translate(744.02 190.15)" fill="#000000" font-family="Helvetica" font-size="9.2916px"><tspan x="0 4.6457934 7.739892 12.906014 15.489076 20.655197 22.71793" y="0">xref_id</tspan></text><text transform="translate(849.07 190.15)" fill="#999999" font-family="Helvetica" font-size="9.2916px"><tspan x="0 5.1661224 7.2288547 12.394977 14.457709 19.623831" y="0">bigint</tspan></text><g transform="matrix(.7743 0 0 .7743 733.95 198.12)"><path d="m0 0h193.32v29h-193.32v-29z" fill="#f5f5f5"/></g><text transform="translate(744.02 212.6)" fill="#6f6f6f" font-family="Helvetica" font-size="9.2916px"><tspan x="0 5.1661224 8.2602205 13.426343 18.592464 23.758587 26.852686 29.435747" y="0">property</tspan></text><text transform="translate(843.37 212.6)" fill="#999999" font-family="Helvetica" font-size="9.2916px"><tspan x="0 4.6457934 9.8119154 12.906014 17.551807 22.71793 27.884052" y="0">varchar</tspan></text><g transform="matrix(.7743 0 0 .7743 733.95 220.58)"><path d="m0 0h193.32v29h-193.32v-29z" fill="#f5f5f5"/></g><text transform="translate(744.02 235.06)" fill="#6f6f6f" font-family="Helvetica" font-size="9.2916px"><tspan x="0 4.6457934 9.8119154 11.874648 17.04077" y="0">value</tspan></text><text transform="translate(843.37 235.06)" fill="#999999" font-family="Helvetica" font-size="9.2916px"><tspan x="0 4.6457934 9.8119154 12.906014 17.551807 22.71793 27.884052" y="0">varchar</tspan></text><g transform="matrix(.7743 0 0 .7743 733.95 261.62)"><path d="m0 0h193.32v32h-193.32v-32z" fill="#306996"/></g><text transform="translate(744.02 277.53)" fill="#ffffff" font-family="Helvetica" font-size="10.066px" font-weight="bold"><tspan x="0 6.1502562 11.746889 17.897144 23.493776 29.09041 35.240665 40.837299 49.78587" y="0">gene_name</tspan></text><g transform="matrix(.7743 0 0 .7743 733.95 286.39)"><path d="m0 0h193.32v29h-193.32v-29z" fill="#f5f5f5"/></g><text transform="translate(744.02 300.87)" fill="#000000" font-family="Helvetica" font-size="9.2916px"><tspan x="0 5.1661224 10.332245 12.394977 17.5611 22.727221 25.82132 30.467113 35.633236 37.695969" y="0">uniparc_id</tspan></text><text transform="translate(840.77 300.87)" fill="#999999" font-family="Helvetica" font-size="9.2916px"><tspan x="0 4.6457934 9.8119154 12.906014 17.551807 22.71793 27.884052" y="0">varchar</tspan></text><g transform="matrix(.7743 0 0 .7743 733.95 308.85)"><path d="m0 0h193.32v29h-193.32v-29z" fill="#f5f5f5"/></g><text transform="translate(744.02 323.33)" fill="#000000" font-family="Helvetica" font-size="9.2916px"><tspan x="0 4.6457934 7.739892 12.906014 15.489076 20.655197 22.71793" y="0">xref_id</tspan></text><text transform="translate(849.07 323.33)" fill="#999999" font-family="Helvetica" font-size="9.2916px"><tspan x="0 5.1661224 7.2288547 12.394977 14.457709 19.623831" y="0">bigint</tspan></text><g transform="matrix(.7743 0 0 .7743 733.95 331.3)"><path d="m0 0h193.32v29h-193.32v-29z" fill="#f5f5f5"/></g><text transform="translate(744.02 345.78)" fill="#6f6f6f" font-family="Helvetica" font-size="9.2916px"><tspan x="0 5.1661224 8.2602205 13.426343 18.592464 23.758587 26.852686 29.435747" y="0">property</tspan></text><text transform="translate(843.37 345.78)" fill="#999999" font-family="Helvetica" font-size="9.2916px"><tspan x="0 4.6457934 9.8119154 12.906014 17.551807 22.71793 27.884052" y="0">varchar</tspan></text><g transform="matrix(.7743 0 0 .7743 733.95 353.76)"><path d="m0 0h193.32v29h-193.32v-29z" fill="#f5f5f5"/></g><text transform="translate(744.02 368.24)" fill="#6f6f6f" font-family="Helvetica" font-size="9.2916px"><tspan x="0 4.6457934 9.8119154 11.874648 17.04077" y="0">value</tspan></text><text transform="translate(843.37 368.24)" fill="#999999" font-family="Helvetica" font-size="9.2916px"><tspan x="0 4.6457934 9.8119154 12.906014 17.551807 22.71793 27.884052" y="0">varchar</tspan></text><g transform="matrix(.7743 0 0 .7743 733.95 515.59)"><path d="m0 0h193.32v32h-193.32v-32z" fill="#306996"/></g><text transform="translate(744.02 531.5)" fill="#ffffff" font-family="Helvetica" font-size="10.066px" font-weight="bold"><tspan x="0 6.1502562 11.746889 17.897144 20.695461 26.292093 29.644033 35.240665 40.837299 46.987553 53.13781 59.288067 68.236641 73.833275 79.429901 82.228218" y="0">ncbi_taxonomy_id</tspan></text><g transform="matrix(.7743 0 0 .7743 733.95 540.36)"><path d="m0 0h193.32v29h-193.32v-29z" fill="#f5f5f5"/></g><text transform="translate(744.02 554.84)" fill="#000000" font-family="Helvetica" font-size="9.2916px"><tspan x="0 5.1661224 10.332245 12.394977 17.5611 22.727221 25.82132 30.467113 35.633236 37.695969" y="0">uniparc_id</tspan></text><text transform="translate(840.77 554.84)" fill="#999999" font-family="Helvetica" font-size="9.2916px"><tspan x="0 4.6457934 9.8119154 12.906014 17.551807 22.71793 27.884052" y="0">varchar</tspan></text><g transform="matrix(.7743 0 0 .7743 733.95 562.82)"><path d="m0 0h193.32v29h-193.32v-29z" fill="#f5f5f5"/></g><text transform="translate(744.02 577.3)" fill="#000000" font-family="Helvetica" font-size="9.2916px"><tspan x="0 4.6457934 7.739892 12.906014 15.489076 20.655197 22.71793" y="0">xref_id</tspan></text><text transform="translate(849.07 577.3)" fill="#999999" font-family="Helvetica" font-size="9.2916px"><tspan x="0 5.1661224 7.2288547 12.394977 14.457709 19.623831" y="0">bigint</tspan></text><g transform="matrix(.7743 0 0 .7743 733.95 585.27)"><path d="m0 0h193.32v29h-193.32v-29z" fill="#f5f5f5"/></g><text transform="translate(744.02 599.75)" fill="#6f6f6f" font-family="Helvetica" font-size="9.2916px"><tspan x="0 5.1661224 8.2602205 13.426343 18.592464 23.758587 26.852686 29.435747" y="0">property</tspan></text><text transform="translate(843.37 599.75)" fill="#999999" font-family="Helvetica" font-size="9.2916px"><tspan x="0 4.6457934 9.8119154 12.906014 17.551807 22.71793 27.884052" y="0">varchar</tspan></text><g transform="matrix(.7743 0 0 .7743 733.95 607.73)"><path d="m0 0h193.32v29h-193.32v-29z" fill="#f5f5f5"/></g><text transform="translate(744.02 622.21)" fill="#6f6f6f" font-family="Helvetica" font-size="9.2916px"><tspan x="0 4.6457934 9.8119154 11.874648 17.04077" y="0">value</tspan></text><text transform="translate(843.37 622.21)" fill="#999999" font-family="Helvetica" font-size="9.2916px"><tspan x="0 4.6457934 9.8119154 12.906014 17.551807 22.71793 27.884052" y="0">varchar</tspan></text><g transform="matrix(.7743 0 0 .7743 733.95 388.6)"><path d="m0 0h193.32v32h-193.32v-32z" fill="#306996"/></g><text transform="translate(744.02 404.51)" fill="#ffffff" font-family="Helvetica" font-size="10.066px" font-weight="bold"><tspan x="0 6.1502562 11.746889 17.897144 20.695461 26.292093 32.442348" y="0">ncbi_gi</tspan></text><g transform="matrix(.7743 0 0 .7743 733.95 413.38)"><path d="m0 0h193.32v29h-193.32v-29z" fill="#f5f5f5"/></g><text transform="translate(744.02 427.86)" fill="#000000" font-family="Helvetica" font-size="9.2916px"><tspan x="0 5.1661224 10.332245 12.394977 17.5611 22.727221 25.82132 30.467113 35.633236 37.695969" y="0">uniparc_id</tspan></text><text transform="translate(840.77 427.86)" fill="#999999" font-family="Helvetica" font-size="9.2916px"><tspan x="0 4.6457934 9.8119154 12.906014 17.551807 22.71793 27.884052" y="0">varchar</tspan></text><g transform="matrix(.7743 0 0 .7743 733.95 435.83)"><path d="m0 0h193.32v29h-193.32v-29z" fill="#f5f5f5"/></g><text transform="translate(744.02 450.31)" fill="#000000" font-family="Helvetica" font-size="9.2916px"><tspan x="0 4.6457934 7.739892 12.906014 15.489076 20.655197 22.71793" y="0">xref_id</tspan></text><text transform="translate(849.07 450.31)" fill="#999999" font-family="Helvetica" font-size="9.2916px"><tspan x="0 5.1661224 7.2288547 12.394977 14.457709 19.623831" y="0">bigint</tspan></text><g transform="matrix(.7743 0 0 .7743 733.95 458.29)"><path d="m0 0h193.32v29h-193.32v-29z" fill="#f5f5f5"/></g><text transform="translate(744.02 472.77)" fill="#6f6f6f" font-family="Helvetica" font-size="9.2916px"><tspan x="0 5.1661224 8.2602205 13.426343 18.592464 23.758587 26.852686 29.435747" y="0">property</tspan></text><text transform="translate(843.37 472.77)" fill="#999999" font-family="Helvetica" font-size="9.2916px"><tspan x="0 4.6457934 9.8119154 12.906014 17.551807 22.71793 27.884052" y="0">varchar</tspan></text><g transform="matrix(.7743 0 0 .7743 733.95 480.74)"><path d="m0 0h193.32v29h-193.32v-29z" fill="#f5f5f5"/></g><text transform="translate(744.02 495.22)" fill="#6f6f6f" font-family="Helvetica" font-size="9.2916px"><tspan x="0 4.6457934 9.8119154 11.874648 17.04077" y="0">value</tspan></text><text transform="translate(843.37 495.22)" fill="#999999" font-family="Helvetica" font-size="9.2916px"><tspan x="0 4.6457934 9.8119154 12.906014 17.551807 22.71793 27.884052" y="0">varchar</tspan></text><g transform="matrix(.7743 0 0 .7743 266.28 261.62)"><path d="m0 0h210.26v32h-210.26v-32z" fill="#306996"/></g><text transform="translate(276.34 277.53)" fill="#ffffff" font-family="Helvetica" font-size="10.066px" font-weight="bold"><tspan x="0 6.1502562 12.300512 21.249084 26.845716 29.644033" y="0">domain</tspan></text><g transform="matrix(.7743 0 0 .7743 266.28 286.39)"><path d="m0 0h210.26v29h-210.26v-29z" fill="#f5f5f5"/></g><text transform="translate(276.34 300.87)" fill="#000000" font-family="Helvetica" font-size="9.2916px"><tspan x="0 5.1661224 10.332245 12.394977 17.5611 22.727221 25.82132 30.467113 35.633236 37.695969" y="0">uniparc_id</tspan></text><text transform="translate(386.22 300.87)" fill="#999999" font-family="Helvetica" font-size="9.2916px"><tspan x="0 4.6457934 9.8119154 12.906014 17.551807 22.71793 27.884052" y="0">varchar</tspan></text><g transform="matrix(.7743 0 0 .7743 266.28 308.85)"><path d="m0 0h210.26v29h-210.26v-29z" fill="#f5f5f5"/></g><text transform="translate(276.34 323.33)" fill="#6f6f6f" font-family="Helvetica" font-size="9.2916px"><tspan x="0 5.1661224 10.332245 12.915306 18.081429 23.247551 28.413673 33.059467" y="0">database</tspan></text><text transform="translate(388.81 323.33)" fill="#999999" font-family="Helvetica" font-size="9.2916px"><tspan x="0 4.6457934 9.8119154 12.906014 17.551807 22.71793 27.884052" y="0">varchar</tspan></text><g transform="matrix(.7743 0 0 .7743 266.28 331.3)"><path d="m0 0h210.26v29h-210.26v-29z" fill="#f5f5f5"/></g><text transform="translate(276.34 345.78)" fill="#6f6f6f" font-family="Helvetica" font-size="9.2916px"><tspan x="0 5.1661224 10.332245 12.915306 18.081429 23.247551 28.413673 33.059467 38.22559 43.391712 45.454441" y="0">database_id</tspan></text><text transform="translate(388.81 345.78)" fill="#999999" font-family="Helvetica" font-size="9.2916px"><tspan x="0 4.6457934 9.8119154 12.906014 17.551807 22.71793 27.884052" y="0">varchar</tspan></text><g transform="matrix(.7743 0 0 .7743 266.28 353.76)"><path d="m0 0h210.26v29h-210.26v-29z" fill="#f5f5f5"/></g><text transform="translate(276.34 368.24)" fill="#6f6f6f" font-family="Helvetica" font-size="9.2916px"><tspan x="0 2.0627322 7.2288547 9.8119154 14.978038 18.072136 23.238258 26.332357 31.49848 36.6646 41.830723 46.996845 54.736736" y="0">interpro_name</tspan></text><text transform="translate(388.81 368.24)" fill="#999999" font-family="Helvetica" font-size="9.2916px"><tspan x="0 4.6457934 9.8119154 12.906014 17.551807 22.71793 27.884052" y="0">varchar</tspan></text><g transform="matrix(.7743 0 0 .7743 266.28 376.21)"><path d="m0 0h210.26v29h-210.26v-29z" fill="#f5f5f5"/></g><text transform="translate(276.34 390.69)" fill="#6f6f6f" font-family="Helvetica" font-size="9.2916px"><tspan x="0 2.0627322 7.2288547 9.8119154 14.978038 18.072136 23.238258 26.332357 31.49848 36.6646 38.727333" y="0">interpro_id</tspan></text><text transform="translate(388.81 390.69)" fill="#999999" font-family="Helvetica" font-size="9.2916px"><tspan x="0 4.6457934 9.8119154 12.906014 17.551807 22.71793 27.884052" y="0">varchar</tspan></text><g transform="matrix(.7743 0 0 .7743 266.28 398.67)"><path d="m0 0h210.26v29h-210.26v-29z" fill="#f5f5f5"/></g><text transform="translate(276.34 413.15)" fill="#6f6f6f" font-family="Helvetica" font-size="9.2916px"><tspan x="0 5.1661224 10.332245 18.072136 23.238258 25.300991 30.467113 35.633236 40.27903 42.862091 48.028214 51.122311" y="0">domain_start</tspan></text><text transform="translate(391.38 413.15)" fill="#999999" font-family="Helvetica" font-size="9.2916px"><tspan x="0 2.0627322 7.2288547 9.8119154 14.978038 20.144159 25.310282" y="0">integer</tspan></text><g transform="matrix(.7743 0 0 .7743 266.28 421.12)"><path d="m0 0h210.26v29h-210.26v-29z" fill="#f5f5f5"/></g><text transform="translate(276.34 435.6)" fill="#6f6f6f" font-family="Helvetica" font-size="9.2916px"><tspan x="0 5.1661224 10.332245 18.072136 23.238258 25.300991 30.467113 35.633236 40.799358 45.965481" y="0">domain_end</tspan></text><text transform="translate(391.38 435.6)" fill="#999999" font-family="Helvetica" font-size="9.2916px"><tspan x="0 2.0627322 7.2288547 9.8119154 14.978038 20.144159 25.310282" y="0">integer</tspan></text></g></g></g></svg>
